<mxfile host="app.diagrams.net" agent="Mozilla/5.0 (Windows NT 10.0; Win64; x64) AppleWebKit/537.36 (KHTML, like Gecko) Chrome/130.0.0.0 Safari/537.36" version="24.8.6">
  <diagram name="Página-1" id="ndIE9iRu-5RsDKBhaJrT">
    <mxGraphModel dx="1434" dy="772" grid="1" gridSize="10" guides="1" tooltips="1" connect="1" arrows="1" fold="1" page="1" pageScale="1" pageWidth="827" pageHeight="1169" math="0" shadow="0">
      <root>
        <mxCell id="0" />
        <mxCell id="1" parent="0" />
        <mxCell id="EAjG66n4U_kq2L5824By-13" value="VerificaAndar" style="shape=umlFrame;whiteSpace=wrap;html=1;pointerEvents=0;width=90;height=30;" parent="1" vertex="1">
          <mxGeometry x="20" y="270" width="420" height="80" as="geometry" />
        </mxCell>
        <mxCell id="EAjG66n4U_kq2L5824By-7" value="" style="endArrow=none;html=1;rounded=0;exitX=0.003;exitY=0.541;exitDx=0;exitDy=0;exitPerimeter=0;dashed=1;" parent="1" source="EAjG66n4U_kq2L5824By-5" edge="1">
          <mxGeometry width="50" height="50" relative="1" as="geometry">
            <mxPoint x="460" y="820" as="sourcePoint" />
            <mxPoint x="590" y="960" as="targetPoint" />
            <Array as="points">
              <mxPoint x="300" y="960" />
            </Array>
          </mxGeometry>
        </mxCell>
        <mxCell id="EAjG66n4U_kq2L5824By-5" value="Peso" style="shape=umlFrame;whiteSpace=wrap;html=1;pointerEvents=0;" parent="1" vertex="1">
          <mxGeometry x="10" y="850" width="580" height="200" as="geometry" />
        </mxCell>
        <mxCell id="94Sxvm2VLyfUZKXNGgCt-1" value="Andar" style="shape=umlFrame;whiteSpace=wrap;html=1;pointerEvents=0;" parent="1" vertex="1">
          <mxGeometry x="340" y="360" width="450" height="180" as="geometry" />
        </mxCell>
        <mxCell id="MVGgcwuGfcrAvFL7aOCa-16" value="" style="endArrow=none;html=1;rounded=0;exitX=0.005;exitY=0.422;exitDx=0;exitDy=0;exitPerimeter=0;entryX=1.002;entryY=0.422;entryDx=0;entryDy=0;entryPerimeter=0;dashed=1;" parent="1" edge="1">
          <mxGeometry width="50" height="50" relative="1" as="geometry">
            <mxPoint x="41.29000000000009" y="650" as="sourcePoint" />
            <mxPoint x="470.0000000000001" y="650" as="targetPoint" />
          </mxGeometry>
        </mxCell>
        <mxCell id="MVGgcwuGfcrAvFL7aOCa-14" value="Permissao" style="shape=umlFrame;whiteSpace=wrap;html=1;pointerEvents=0;width=80;height=30;" parent="1" vertex="1">
          <mxGeometry x="40" y="570" width="430" height="180" as="geometry" />
        </mxCell>
        <mxCell id="MVGgcwuGfcrAvFL7aOCa-1" style="edgeStyle=orthogonalEdgeStyle;rounded=0;orthogonalLoop=1;jettySize=auto;html=1;endArrow=none;endFill=0;dashed=1;" parent="1" edge="1">
          <mxGeometry relative="1" as="geometry">
            <mxPoint x="140" y="1120" as="targetPoint" />
            <mxPoint x="140" y="220" as="sourcePoint" />
          </mxGeometry>
        </mxCell>
        <mxCell id="MVGgcwuGfcrAvFL7aOCa-2" value="Hóspede" style="shape=umlActor;verticalLabelPosition=bottom;verticalAlign=top;html=1;outlineConnect=0;" parent="1" vertex="1">
          <mxGeometry x="120" y="110" width="40" height="80" as="geometry" />
        </mxCell>
        <mxCell id="MVGgcwuGfcrAvFL7aOCa-3" value="" style="rounded=1;whiteSpace=wrap;html=1;" parent="1" vertex="1">
          <mxGeometry x="125" y="230" width="30" height="870" as="geometry" />
        </mxCell>
        <mxCell id="MVGgcwuGfcrAvFL7aOCa-5" style="edgeStyle=orthogonalEdgeStyle;rounded=0;orthogonalLoop=1;jettySize=auto;html=1;endArrow=none;endFill=0;dashed=1;" parent="1" edge="1">
          <mxGeometry relative="1" as="geometry">
            <mxPoint x="420" y="1120" as="targetPoint" />
            <mxPoint x="420" y="220" as="sourcePoint" />
          </mxGeometry>
        </mxCell>
        <mxCell id="MVGgcwuGfcrAvFL7aOCa-6" value="Elevador" style="shape=umlActor;verticalLabelPosition=bottom;verticalAlign=top;html=1;outlineConnect=0;" parent="1" vertex="1">
          <mxGeometry x="400" y="110" width="40" height="80" as="geometry" />
        </mxCell>
        <mxCell id="MVGgcwuGfcrAvFL7aOCa-7" value="" style="rounded=1;whiteSpace=wrap;html=1;" parent="1" vertex="1">
          <mxGeometry x="405" y="230" width="30" height="870" as="geometry" />
        </mxCell>
        <mxCell id="MVGgcwuGfcrAvFL7aOCa-9" style="edgeStyle=orthogonalEdgeStyle;rounded=0;orthogonalLoop=1;jettySize=auto;html=1;endArrow=none;endFill=0;dashed=1;" parent="1" edge="1">
          <mxGeometry relative="1" as="geometry">
            <mxPoint x="700" y="600" as="targetPoint" />
            <mxPoint x="700" y="220" as="sourcePoint" />
          </mxGeometry>
        </mxCell>
        <mxCell id="MVGgcwuGfcrAvFL7aOCa-11" value="" style="rounded=1;whiteSpace=wrap;html=1;" parent="1" vertex="1">
          <mxGeometry x="685" y="230" width="30" height="340" as="geometry" />
        </mxCell>
        <mxCell id="MVGgcwuGfcrAvFL7aOCa-13" value="Mensagem de erro" style="endArrow=classic;html=1;rounded=0;entryX=1.011;entryY=0.442;entryDx=0;entryDy=0;entryPerimeter=0;dashed=1;" parent="1" edge="1">
          <mxGeometry x="-0.0054" y="-10" width="50" height="50" relative="1" as="geometry">
            <mxPoint x="405" y="630" as="sourcePoint" />
            <mxPoint x="156.32999999999993" y="630.2799999999999" as="targetPoint" />
            <mxPoint as="offset" />
          </mxGeometry>
        </mxCell>
        <mxCell id="MVGgcwuGfcrAvFL7aOCa-15" value="if[!Permissao]" style="text;html=1;align=center;verticalAlign=middle;resizable=0;points=[];autosize=1;strokeColor=none;fillColor=none;" parent="1" vertex="1">
          <mxGeometry x="151.33" y="570" width="100" height="30" as="geometry" />
        </mxCell>
        <mxCell id="MVGgcwuGfcrAvFL7aOCa-17" value="[else]" style="text;html=1;align=center;verticalAlign=middle;resizable=0;points=[];autosize=1;strokeColor=none;fillColor=none;" parent="1" vertex="1">
          <mxGeometry x="155" y="650" width="50" height="30" as="geometry" />
        </mxCell>
        <mxCell id="MVGgcwuGfcrAvFL7aOCa-18" value="Adiciona Andar para andaresSolicitados" style="endArrow=classic;html=1;rounded=0;entryX=1.014;entryY=0.912;entryDx=0;entryDy=0;entryPerimeter=0;exitX=0.012;exitY=0.912;exitDx=0;exitDy=0;exitPerimeter=0;dashed=1;" parent="1" edge="1">
          <mxGeometry x="0.0031" y="-10" width="50" height="50" relative="1" as="geometry">
            <mxPoint x="405.3600000000001" y="710.0799999999999" as="sourcePoint" />
            <mxPoint x="155.42000000000007" y="710.0799999999999" as="targetPoint" />
            <mxPoint as="offset" />
          </mxGeometry>
        </mxCell>
        <mxCell id="MVGgcwuGfcrAvFL7aOCa-19" value="" style="shape=umlBoundary;whiteSpace=wrap;html=1;" parent="1" vertex="1">
          <mxGeometry x="660" y="135" width="70" height="55" as="geometry" />
        </mxCell>
        <mxCell id="MVGgcwuGfcrAvFL7aOCa-20" value="&lt;font style=&quot;font-size: 11px;&quot;&gt;Banco de&amp;nbsp;&lt;/font&gt;&lt;div style=&quot;font-size: 11px;&quot;&gt;&lt;font style=&quot;font-size: 11px;&quot;&gt;dados&lt;/font&gt;&lt;/div&gt;" style="text;html=1;align=center;verticalAlign=middle;resizable=0;points=[];autosize=1;strokeColor=none;fillColor=none;" parent="1" vertex="1">
          <mxGeometry x="665" y="180" width="70" height="40" as="geometry" />
        </mxCell>
        <mxCell id="94Sxvm2VLyfUZKXNGgCt-2" value="if[Andar in AndaresVIP]" style="text;html=1;align=center;verticalAlign=middle;resizable=0;points=[];autosize=1;strokeColor=none;fillColor=none;" parent="1" vertex="1">
          <mxGeometry x="430" y="380" width="150" height="30" as="geometry" />
        </mxCell>
        <mxCell id="EAjG66n4U_kq2L5824By-1" value="Seleciona Andar" style="endArrow=classic;html=1;rounded=0;exitX=1.022;exitY=0.087;exitDx=0;exitDy=0;exitPerimeter=0;entryX=0.031;entryY=0.088;entryDx=0;entryDy=0;entryPerimeter=0;" parent="1" edge="1">
          <mxGeometry x="-0.0065" y="10" width="50" height="50" relative="1" as="geometry">
            <mxPoint x="155" y="250" as="sourcePoint" />
            <mxPoint x="405" y="250" as="targetPoint" />
            <mxPoint as="offset" />
          </mxGeometry>
        </mxCell>
        <mxCell id="EAjG66n4U_kq2L5824By-2" value="Realiza análise facial" style="endArrow=classic;html=1;rounded=0;exitX=1;exitY=0.085;exitDx=0;exitDy=0;exitPerimeter=0;entryX=0;entryY=0.206;entryDx=0;entryDy=0;entryPerimeter=0;" parent="1" edge="1">
          <mxGeometry x="-0.0401" y="10" width="50" height="50" relative="1" as="geometry">
            <mxPoint x="435" y="439.70000000000005" as="sourcePoint" />
            <mxPoint x="685" y="440" as="targetPoint" />
            <mxPoint as="offset" />
          </mxGeometry>
        </mxCell>
        <mxCell id="EAjG66n4U_kq2L5824By-3" value="Retorna Permissao" style="endArrow=classic;html=1;rounded=0;exitX=0.028;exitY=0.317;exitDx=0;exitDy=0;exitPerimeter=0;dashed=1;entryX=1.029;entryY=0.133;entryDx=0;entryDy=0;entryPerimeter=0;" parent="1" edge="1">
          <mxGeometry x="-0.0003" y="-8" width="50" height="50" relative="1" as="geometry">
            <mxPoint x="686" y="478" as="sourcePoint" />
            <mxPoint x="435.8699999999999" y="479.0600000000002" as="targetPoint" />
            <mxPoint as="offset" />
          </mxGeometry>
        </mxCell>
        <mxCell id="EAjG66n4U_kq2L5824By-4" value="Verificar pesoAtual" style="endArrow=classic;html=1;rounded=0;entryX=0.901;entryY=0.597;entryDx=0;entryDy=0;entryPerimeter=0;exitX=1.018;exitY=0.621;exitDx=0;exitDy=0;exitPerimeter=0;" parent="1" source="MVGgcwuGfcrAvFL7aOCa-7" edge="1">
          <mxGeometry width="50" height="50" relative="1" as="geometry">
            <mxPoint x="440" y="770" as="sourcePoint" />
            <mxPoint x="435" y="829.8599999999998" as="targetPoint" />
            <Array as="points">
              <mxPoint x="522.97" y="770.32" />
              <mxPoint x="522.97" y="830.32" />
            </Array>
          </mxGeometry>
        </mxCell>
        <mxCell id="EAjG66n4U_kq2L5824By-6" value="if[pesoAtual &amp;gt; pesoLimite]" style="text;html=1;align=center;verticalAlign=middle;resizable=0;points=[];autosize=1;strokeColor=none;fillColor=none;" parent="1" vertex="1">
          <mxGeometry x="150" y="860" width="160" height="30" as="geometry" />
        </mxCell>
        <mxCell id="EAjG66n4U_kq2L5824By-8" value="[else]" style="text;html=1;align=center;verticalAlign=middle;resizable=0;points=[];autosize=1;strokeColor=none;fillColor=none;" parent="1" vertex="1">
          <mxGeometry x="155" y="960" width="50" height="30" as="geometry" />
        </mxCell>
        <mxCell id="EAjG66n4U_kq2L5824By-9" value="Mensagem de erro" style="endArrow=classic;html=1;rounded=0;exitX=0.018;exitY=0.695;exitDx=0;exitDy=0;exitPerimeter=0;entryX=1.063;entryY=0.695;entryDx=0;entryDy=0;entryPerimeter=0;dashed=1;" parent="1" edge="1">
          <mxGeometry x="0.0098" y="-10" width="50" height="50" relative="1" as="geometry">
            <mxPoint x="405.53999999999996" y="919.9000000000001" as="sourcePoint" />
            <mxPoint x="156.88999999999987" y="919.9000000000001" as="targetPoint" />
            <mxPoint as="offset" />
          </mxGeometry>
        </mxCell>
        <mxCell id="EAjG66n4U_kq2L5824By-10" value="Se direciona a andar mais próximo em&amp;nbsp;&lt;div&gt;andaresSolicitados baseado em direção&lt;/div&gt;" style="endArrow=classic;html=1;rounded=0;exitX=-0.003;exitY=0.829;exitDx=0;exitDy=0;exitPerimeter=0;entryX=1.015;entryY=0.828;entryDx=0;entryDy=0;entryPerimeter=0;dashed=1;" parent="1" edge="1">
          <mxGeometry x="-0.0013" y="-20" width="50" height="50" relative="1" as="geometry">
            <mxPoint x="404.9100000000001" y="1029.78" as="sourcePoint" />
            <mxPoint x="155.44999999999982" y="1028.9599999999998" as="targetPoint" />
            <Array as="points">
              <mxPoint x="280" y="1030" />
            </Array>
            <mxPoint as="offset" />
          </mxGeometry>
        </mxCell>
        <mxCell id="EAjG66n4U_kq2L5824By-15" value="if[Andar not in andaresDisponiveis]" style="text;html=1;align=center;verticalAlign=middle;resizable=0;points=[];autosize=1;strokeColor=none;fillColor=none;" parent="1" vertex="1">
          <mxGeometry x="170" y="270" width="210" height="30" as="geometry" />
        </mxCell>
        <mxCell id="EAjG66n4U_kq2L5824By-16" value="Mensagem de erro" style="endArrow=classic;html=1;rounded=0;entryX=0.946;entryY=0.11;entryDx=0;entryDy=0;entryPerimeter=0;exitX=0.071;exitY=0.108;exitDx=0;exitDy=0;exitPerimeter=0;dashed=1;" parent="1" source="MVGgcwuGfcrAvFL7aOCa-7" target="MVGgcwuGfcrAvFL7aOCa-3" edge="1">
          <mxGeometry x="0.0012" y="-15" width="50" height="50" relative="1" as="geometry">
            <mxPoint x="540" y="430" as="sourcePoint" />
            <mxPoint x="590" y="380" as="targetPoint" />
            <mxPoint as="offset" />
          </mxGeometry>
        </mxCell>
      </root>
    </mxGraphModel>
  </diagram>
</mxfile>
